<svg xmlns="http://www.w3.org/2000/svg" xmlns:xlink="http://www.w3.org/1999/xlink" width="1em" height="1em" preserveAspectRatio="xMidYMid meet" viewBox="0 0 24 24" style="-ms-transform: rotate(360deg); -webkit-transform: rotate(360deg); transform: rotate(360deg);"><path fill="#645caa" fill-rule="evenodd" d="M10 2a1 1 0 0 0-1.79-.614l-7 9a1 1 0 0 0 0 1.228l7 9A1 1 0 0 0 10 20v-3.99c5.379.112 7.963 1.133 9.261 2.243c1.234 1.055 1.46 2.296 1.695 3.596l.061.335a1 1 0 0 0 1.981-.122c.171-2.748-.086-6.73-2.027-10.061C19.087 8.768 15.694 6.282 10 6.022V2Z" clip-rule="evenodd"/></svg>